<?xml version="1.0" encoding="UTF-8" ?>
<svg xmlns="http://www.w3.org/2000/svg" version="1.1">
<polyline points="30.0,194.906666667 30.0,172.24 38.0,167.621197846 38.0,135.6 139.6,135.6 151.6,131.6 159.6,131.6 210.4,131.6 159.6,131.6 159.6,80.8 210.4,80.8 269.2,30.0 286.6,30.0 337.4,30.0 337.4,131.6 286.6,131.6 337.4,131.6 396.2,131.6 408.2,135.6 509.8,135.6 509.8,167.621197846 517.8,172.24 517.8,194.906666667 509.8,199.52546882 509.8,229.2 408.2,229.2 396.2,233.2 337.4,233.2 286.6,233.2 337.4,233.2 337.4,334.8 269.2,334.8 210.4,284.0 159.6,284.0 159.6,233.2 210.4,233.2 159.6,233.2 151.6,233.2 139.6,229.2 38.0,229.2 38.0,199.52546882 30.0,194.906666667 "
stroke-width="1" stroke = "red" fill="none" />
<path d="M214.39999999999998 101.30666666666667
 L 214.39999999999998 78.64
 A 2.0 2.0 0 0 1 218.39999999999998 78.64
 L 218.39999999999998 101.30666666666667
 A 2.0 2.0 0 0 1 214.39999999999998 101.30666666666667"
 stroke="red" fill="none" stroke-width="1"/>
<line stroke-dasharray="5, 5" 	 x1="30.0" y1="182.4" x2="139.6" y2="182.4" /> 
<line stroke-dasharray="5, 5" 	 x1="139.6" y1="182.4" x2="139.6" y2="135.6" /> 
<line stroke-dasharray="5, 5" 	 x1="139.6" y1="135.6" x2="139.6" y2="229.2" /> 
<line stroke-dasharray="5, 5" 	 x1="139.6" y1="229.2" x2="139.6" y2="182.4" /> 
<line stroke-dasharray="5, 5" 	 x1="139.6" y1="182.4" x2="151.6" y2="182.4" /> 
<line stroke-dasharray="5, 5" 	 x1="151.6" y1="182.4" x2="151.6" y2="131.6" /> 
<line stroke-dasharray="5, 5" 	 x1="151.6" y1="131.6" x2="151.6" y2="233.2" /> 
<line stroke-dasharray="5, 5" 	 x1="151.6" y1="233.2" x2="151.6" y2="182.4" /> 
<line stroke-dasharray="5, 5" 	 x1="151.6" y1="182.4" x2="155.6" y2="182.4" /> 
<line stroke-dasharray="5, 5" 	 x1="155.6" y1="182.4" x2="155.6" y2="131.6" /> 
<line stroke-dasharray="5, 5" 	 x1="155.6" y1="131.6" x2="155.6" y2="233.2" /> 
<line stroke-dasharray="5, 5" 	 x1="155.6" y1="233.2" x2="155.6" y2="182.4" /> 
<line stroke-dasharray="5, 5" 	 x1="155.6" y1="182.4" x2="181.0" y2="182.4" /> 
<line stroke-dasharray="5, 5" 	 x1="181.0" y1="182.4" x2="181.0" y2="131.6" /> 
<line stroke-dasharray="5, 5" 	 x1="181.0" y1="131.6" x2="181.0" y2="233.2" /> 
<line stroke-dasharray="5, 5" 	 x1="181.0" y1="233.2" x2="181.0" y2="182.4" /> 
<line stroke-dasharray="5, 5" 	 x1="181.0" y1="182.4" x2="206.4" y2="182.4" /> 
<line stroke-dasharray="5, 5" 	 x1="206.4" y1="182.4" x2="206.4" y2="131.6" /> 
<line stroke-dasharray="5, 5" 	 x1="206.4" y1="131.6" x2="206.4" y2="233.2" /> 
<line stroke-dasharray="5, 5" 	 x1="206.4" y1="233.2" x2="206.4" y2="182.4" /> 
<line stroke-dasharray="5, 5" 	 x1="206.4" y1="182.4" x2="269.2" y2="182.4" /> 
<line stroke-dasharray="5, 5" 	 x1="269.2" y1="182.4" x2="269.2" y2="131.6" /> 
<line stroke-dasharray="5, 5" 	 x1="269.2" y1="131.6" x2="210.4" y2="131.6" /> 
<line stroke-dasharray="5, 5" 	 x1="210.4" y1="131.6" x2="210.4" y2="80.8" /> 
<line stroke-dasharray="5, 5" 	 x1="210.4" y1="80.8" x2="210.4" y2="131.6" /> 
<line stroke-dasharray="5, 5" 	 x1="210.4" y1="131.6" x2="286.6" y2="131.6" /> 
<line stroke-dasharray="5, 5" 	 x1="286.6" y1="131.6" x2="286.6" y2="30.0" /> 
<line stroke-dasharray="5, 5" 	 x1="286.6" y1="30.0" x2="286.6" y2="131.6" /> 
<line stroke-dasharray="5, 5" 	 x1="286.6" y1="131.6" x2="269.2" y2="131.6" /> 
<line stroke-dasharray="5, 5" 	 x1="269.2" y1="131.6" x2="269.2" y2="233.2" /> 
<line stroke-dasharray="5, 5" 	 x1="269.2" y1="233.2" x2="210.4" y2="233.2" /> 
<line stroke-dasharray="5, 5" 	 x1="210.4" y1="233.2" x2="210.4" y2="284.0" /> 
<line stroke-dasharray="5, 5" 	 x1="210.4" y1="284.0" x2="210.4" y2="233.2" /> 
<line stroke-dasharray="5, 5" 	 x1="210.4" y1="233.2" x2="286.6" y2="233.2" /> 
<line stroke-dasharray="5, 5" 	 x1="286.6" y1="233.2" x2="286.6" y2="334.8" /> 
<line stroke-dasharray="5, 5" 	 x1="286.6" y1="334.8" x2="286.6" y2="233.2" /> 
<line stroke-dasharray="5, 5" 	 x1="286.6" y1="233.2" x2="269.2" y2="233.2" /> 
<line stroke-dasharray="5, 5" 	 x1="269.2" y1="233.2" x2="269.2" y2="182.4" /> 
<line stroke-dasharray="5, 5" 	 x1="269.2" y1="182.4" x2="290.6" y2="182.4" /> 
<line stroke-dasharray="5, 5" 	 x1="290.6" y1="182.4" x2="290.6" y2="131.6" /> 
<line stroke-dasharray="5, 5" 	 x1="290.6" y1="131.6" x2="290.6" y2="233.2" /> 
<line stroke-dasharray="5, 5" 	 x1="290.6" y1="233.2" x2="290.6" y2="182.4" /> 
<line stroke-dasharray="5, 5" 	 x1="290.6" y1="182.4" x2="392.2" y2="182.4" /> 
<line stroke-dasharray="5, 5" 	 x1="392.2" y1="182.4" x2="392.2" y2="131.6" /> 
<line stroke-dasharray="5, 5" 	 x1="392.2" y1="131.6" x2="392.2" y2="233.2" /> 
<line stroke-dasharray="5, 5" 	 x1="392.2" y1="233.2" x2="392.2" y2="182.4" /> 
<line stroke-dasharray="5, 5" 	 x1="392.2" y1="182.4" x2="396.2" y2="182.4" /> 
<line stroke-dasharray="5, 5" 	 x1="396.2" y1="182.4" x2="396.2" y2="131.6" /> 
<line stroke-dasharray="5, 5" 	 x1="396.2" y1="131.6" x2="396.2" y2="233.2" /> 
<line stroke-dasharray="5, 5" 	 x1="396.2" y1="233.2" x2="396.2" y2="182.4" /> 
<line stroke-dasharray="5, 5" 	 x1="396.2" y1="182.4" x2="408.2" y2="182.4" /> 
<line stroke-dasharray="5, 5" 	 x1="408.2" y1="182.4" x2="408.2" y2="135.6" /> 
<line stroke-dasharray="5, 5" 	 x1="408.2" y1="135.6" x2="408.2" y2="229.2" /> 
<line stroke-dasharray="5, 5" 	 x1="408.2" y1="229.2" x2="408.2" y2="182.4" /> 
<line stroke-dasharray="5, 5" 	 x1="408.2" y1="182.4" x2="428.52" y2="182.4" /> 
<line stroke-dasharray="5, 5" 	 x1="428.52" y1="182.4" x2="428.52" y2="135.6" /> 
<line stroke-dasharray="5, 5" 	 x1="428.52" y1="135.6" x2="428.52" y2="229.2" /> 
<line stroke-dasharray="5, 5" 	 x1="428.52" y1="229.2" x2="428.52" y2="182.4" /> 
<line stroke-dasharray="5, 5" 	 x1="428.52" y1="182.4" x2="509.8" y2="182.4" /> 


<style><![CDATA[
line{
	 stroke: blue;
	 stroke-width: 2;
}
]]></style>
</svg>